<svg height="100" width="100" xmlns="http://www.w3.org/2000/svg"><path d="m66 14-18 16v9l2 1 2-7 14-12zm28 13-19 16v8l7 3-19 18v26l22-24-2-11 14-14zm-41 14-20 17v20l6-17 14-12z" fill="#333"/><path d="m48 30-22-10 20-15.4 20 9.4m9 29-23-10 19-16 23 10m-31 45-24-11 20-17 23 10m-49 4-22-10 19-17 23 10" fill="#999"/><path d="m50 40 2-7 23 10v8l-16-7-6 5v-8zm-32 1 8-21 22 10v9l-18-8zm-14.8 26 7.8-19 22 10v20l6-17 24 11v26z" fill="#ccc"/><path d="m11 48 19-17 23 10-20 17z" fill="#00c617"/><g fill="none"><path d="m65 53c-2-3-6-3-7-1s5 4 2 7c-1 1-6 0-7-3m19-35-4 7 6-1v5l8-5m-35-11 1 4m3-8c-2-2-6-2-9 1-2 2 0 5 4 5 3 0 7-3 5-6zm-23 29 6 3m-11-1 12-4-3 9" stroke="#111" stroke-width="2"/><path d="m18 41 8-21 20-15.4 20 9.4v7m-34 61 7-21 20-17 23 10 3 20-22 24-59.8-31 7.8-19 19-17 23 10v8m-3-9 2-7 19-16 23 10 3 22-14 14" stroke="#222"/></g></svg>